<?xml version="1.0" encoding="utf-8"?>
<!-- Generator: Adobe Illustrator 25.1.0, SVG Export Plug-In . SVG Version: 6.00 Build 0)  -->
<svg version="1.1" id="Calque_1" xmlns="http://www.w3.org/2000/svg" xmlns:xlink="http://www.w3.org/1999/xlink" x="0px" y="0px"
	 viewBox="0 0 1234.4 850" style="enable-background:new 0 0 1234.4 850;" xml:space="preserve">
<style type="text/css">
	.st0{fill:#0065FC;}
</style>
<g>
	<path class="st0" d="M1186.3,28.2C806.9-80.7,427.5,168.7,48.1,59.8C21.5,52.2,0,65.5,0,92.1v665.8c0,26.5,21.5,56.3,48.1,63.9
		c379.4,108.9,758.8-140.5,1138.2-31.6c26.6,7.6,48.1-5.7,48.1-32.3V92.1C1234.4,65.6,1212.9,35.8,1186.3,28.2z M149.8,775
		c-23.7-3.2-47.5-7.5-71.2-13.1c-2.3-0.5-4.2-2.9-4.2-5.2V695c0-3.6,4.2-4.5,6.9-1.5c23.7,26.1,47.5,50.9,71.2,74.5
		C155.5,770.9,153.7,775.5,149.8,775z M152.5,160.5c-23.7,17.5-47.5,33.8-71.2,48.8c-2.7,1.7-6.9-1.2-6.9-4.8v-61.7
		c0-2.3,1.9-3.7,4.2-3.2c23.7,5.6,47.5,10,71.2,13.1C153.7,153.3,155.5,158.3,152.5,160.5z M617.2,677
		c-72.3,13.7-130.9-89.5-130.9-228.8c0-139,58.6-261.5,130.9-275.1c72.3-13.7,130.9,89.5,130.9,228.8
		C748.1,540.9,689.5,663.3,617.2,677z M1157.9,710.6c0,2.3-1.9,3.7-4.2,3.2c-23.7-5.6-47.5-9.8-71.2-12.9c-3.9-0.5-5.7-5.5-2.7-7.7
		c23.7-17.5,47.5-33.9,71.2-49c2.7-1.7,6.9,1.2,6.9,4.8V710.6z M1157.9,158.4c0,3.6-4.2,4.5-6.9,1.5c-23.7-26-47.5-50.7-71.2-74.3
		c-2.9-2.9-1.1-7.5,2.7-7c23.7,3.1,47.5,7.3,71.2,12.9c2.3,0.5,4.2,2.9,4.2,5.2V158.4z"/>
</g>
</svg>
