<?xml version="1.0" encoding="utf-8"?>
<!-- Generator: Adobe Illustrator 25.1.0, SVG Export Plug-In . SVG Version: 6.00 Build 0)  -->
<svg version="1.1" id="Calque_1" xmlns="http://www.w3.org/2000/svg" xmlns:xlink="http://www.w3.org/1999/xlink" x="0px" y="0px"
	 viewBox="0 0 42.1 48.3" style="enable-background:new 0 0 42.1 48.3;" xml:space="preserve">
<style type="text/css">
	.st0{fill:#0065FC;}
	.st1{fill:none;stroke:#0065FC;stroke-width:5;stroke-linecap:round;stroke-miterlimit:10;}
</style>
<path class="st0" d="M34.8,24.8v19.3c0,0.6-0.1,1.3-0.4,1.8c-0.2,0.4-0.4,0.8-0.8,1.1c-0.8,0.8-1.8,1.3-3.1,1.3
	c-1.2,0-2.2-0.5-3-1.2l0,0c-0.7-0.7-1.2-1.7-1.2-2.8c0-0.1,0-0.1,0-0.2V35H13.1v9.1c0,2.3-1.9,4.2-4.2,4.2c-1.2,0-2.2-0.5-3-1.2l0,0
	c-0.7-0.6-1.1-1.5-1.2-2.4c0-0.2,0-0.4,0-0.6V19.3h20L34.8,24.8z"/>
<path class="st1" d="M9.6,22.9c0,0-7.5-0.3-7.1-8.4"/>
<path class="st0" d="M42.1,6.1h-7.2c0-1-0.4-2-1.1-2.6c-0.7-0.7-1.6-1.1-2.6-1.1h-3.6c-0.1-0.4-0.3-0.8-0.5-1.1
	c-0.2-0.2-0.3-0.4-0.6-0.6c-0.6-0.5-1.3-0.7-2-0.7H24v16l1.6,0.8l2.3,1.2l2.3,1.2l4.7,2.5v-5h0.9c2.9,0,5.3-1.9,6.1-4.5
	c0.2-0.6,0.3-1.2,0.3-1.8v-0.1C42.1,8.4,42.1,6.2,42.1,6.1z M33.3,10.5c-0.4,0.4-0.9,0.6-1.5,0.6c-1.2,0-2.1-0.9-2.1-2.1
	c0-0.6,0.2-1.1,0.6-1.5c0.5-0.3,1-0.5,1.6-0.5s1.1,0.2,1.5,0.6S34,8.5,34,9.1C33.9,9.6,33.7,10.2,33.3,10.5z"/>
</svg>
