<?xml version="1.0" encoding="utf-8"?>
<!-- Generator: Adobe Illustrator 25.1.0, SVG Export Plug-In . SVG Version: 6.00 Build 0)  -->
<svg version="1.1" id="Calque_1" xmlns="http://www.w3.org/2000/svg" xmlns:xlink="http://www.w3.org/1999/xlink" x="0px" y="0px"
	 viewBox="0 0 365.9 487.9" style="enable-background:new 0 0 365.9 487.9;" xml:space="preserve">
<style type="text/css">
	.st0{fill:#0065FC;}
</style>
<g>
	<path class="st0" d="M356.9,71L356.9,71c-12-12-31.5-12-43.5,0l-64.6,64.6c-7.5,7.5-17.6,11.6-28.1,11.6c-19.2-0.1-50.9-0.1-70.1,0
		c-10.5,0-20.6-4.1-28-11.6L52.4,65.4c-12-12-31.5-12-43.5,0v0c-12,12-12,31.5,0,43.5l92.9,92.9v114.4v134.5
		c0,20.5,16.7,37.2,37.2,37.2l0,0c20.5,0,37.2-16.7,37.2-37.2v-97.3h18.2v97.3c0,20.5,16.7,37.2,37.2,37.2h0
		c20.5,0,37.2-16.7,37.2-37.2V316.2V202.5l88.1-88.1C368.9,102.5,368.9,82.9,356.9,71z"/>
	<path class="st0" d="M182.9,132.9L182.9,132.9c36.6,0,66.5-29.9,66.5-66.5v0c0-36.6-29.9-66.5-66.5-66.5l0,0
		c-36.6,0-66.5,29.9-66.5,66.5v0C116.5,103,146.4,132.9,182.9,132.9z"/>
</g>
</svg>
