<?xml version="1.0" encoding="utf-8"?>
<!-- Generator: Adobe Illustrator 25.1.0, SVG Export Plug-In . SVG Version: 6.00 Build 0)  -->
<svg version="1.1" id="Calque_1" xmlns="http://www.w3.org/2000/svg" xmlns:xlink="http://www.w3.org/1999/xlink" x="0px" y="0px"
	 viewBox="0 0 55.4 45.4" style="enable-background:new 0 0 55.4 45.4;" xml:space="preserve">
<g>
	<path d="M11.9,25.9c1.2,1.3,3.3,1.4,4.6,0.2l3.7-3.3l7.6,6.6c0.7,0.6,1.5,0.8,2.3,0.8c0.9,0,1.8-0.3,2.5-1l10.1-10l4.8,4.8
		c0.8,0.8,2.2,0.2,2.2-0.9V8.5c0-0.7-0.6-1.3-1.3-1.3H33.7c-1.2,0-1.7,1.4-0.9,2.2l4.9,4.9L29.9,22l-7.5-6.5
		c-1.3-1.2-3.3-1.1-4.6,0.1l-6,5.4c-1.3,1.2-1.4,3.3-0.2,4.6L11.9,25.9z"/>
	<path d="M51.9,38.4H7V3.5C7,1.6,5.4,0,3.5,0S0,1.6,0,3.5v38.4c0,1.9,1.6,3.5,3.5,3.5h48.4c1.9,0,3.5-1.6,3.5-3.5
		S53.8,38.4,51.9,38.4z"/>
</g>
</svg>
