<?xml version="1.0" encoding="utf-8"?>
<!-- Generator: Adobe Illustrator 25.1.0, SVG Export Plug-In . SVG Version: 6.00 Build 0)  -->
<svg version="1.1" id="Calque_1" xmlns="http://www.w3.org/2000/svg" xmlns:xlink="http://www.w3.org/1999/xlink" x="0px" y="0px"
	 viewBox="0 0 48 48" style="enable-background:new 0 0 48 48;" xml:space="preserve">
<style type="text/css">
	.st0{fill:#FFFFFF;}
</style>
<path class="st0" d="M18,4C10.3,4,4,10.3,4,18s6.3,14,14,14c3.5,0,6.7-1.3,9.1-3.4l0.9,0.9V32l12,12l4-4L32,28h-2.6l-0.9-0.9
	c2.1-2.5,3.4-5.7,3.4-9.1C32,10.3,25.7,4,18,4z M18,8c5.5,0,10,4.5,10,10s-4.5,10-10,10S8,23.5,8,18S12.5,8,18,8z"/>
</svg>
